<svg xmlns="http://www.w3.org/2000/svg" xmlns:xlink="http://www.w3.org/1999/xlink" width="200" zoomAndPan="magnify" viewBox="0 0 150 149.999998" height="200" preserveAspectRatio="xMidYMid meet" version="1.0"><defs><clipPath id="17d5f39326"><path d="M 33 114 L 104 114 L 104 126.75 L 33 126.75 Z M 33 114 " clip-rule="nonzero"/></clipPath><clipPath id="349b2abff4"><path d="M 15 43 L 126.730469 43 L 126.730469 126.75 L 15 126.75 Z M 15 43 " clip-rule="nonzero"/></clipPath></defs><path fill="#c97d44" d="M 28.875 57.65625 C 28.875 57.65625 28.007812 63.9375 31.84375 75.84375 C 35.683594 87.75 44.230469 99.515625 49.371094 103.914062 C 49.371094 103.914062 54.296875 107.957031 55.671875 108.75 C 57.046875 109.542969 63.566406 111.636719 68.492188 111.566406 C 73.417969 111.492188 78.050781 110.699219 80.730469 109.257812 C 83.414062 107.8125 83.917969 107.597656 87.683594 104.277344 C 91.449219 100.957031 98.730469 91.613281 101.84375 83.386719 C 104.957031 75.160156 108.289062 64.476562 106.839844 57.117188 C 106.839844 57.117188 104.957031 60.796875 98.875 63.25 C 92.792969 65.703125 86.707031 68.015625 74.175781 68.953125 C 61.648438 69.890625 50.929688 68.519531 40.570312 65.128906 C 40.570312 65.128906 34.433594 63.015625 31.03125 59.878906 L 28.875 57.65625 " fill-opacity="1" fill-rule="evenodd"/><path fill="#eba26b" d="M 101.351562 62 C 93.492188 66.710938 82.84375 68.335938 73.792969 68.980469 C 72.347656 88.980469 84.027344 104.652344 91.828125 93.390625 C 99.632812 82.128906 100.789062 68.296875 101.351562 62 " fill-opacity="1" fill-rule="evenodd"/><path fill="#a5582f" d="M 28.875 57.65625 C 28.875 57.65625 28.007812 63.9375 31.84375 75.84375 C 35.683594 87.75 44.230469 99.515625 49.371094 103.914062 C 49.371094 103.914062 54.296875 107.957031 55.671875 108.75 C 57.050781 109.542969 63.566406 111.636719 68.492188 111.566406 C 73.417969 111.492188 78.050781 110.699219 80.734375 109.257812 C 83.277344 107.886719 83.863281 107.621094 87.140625 104.753906 C 64.3125 112.808594 53.058594 91.03125 53.238281 68.203125 C 48.898438 67.511719 44.707031 66.480469 40.570312 65.128906 C 40.570312 65.128906 34.433594 63.015625 31.03125 59.875 L 28.875 57.65625 " fill-opacity="1" fill-rule="evenodd"/><path fill="#c97d44" d="M 105.664062 71.855469 C 105.664062 71.855469 107.1875 65.9375 107.257812 61.066406 C 107.257812 61.066406 109.792969 58.21875 114.394531 58.324219 C 118.992188 58.433594 124.460938 61.464844 125.65625 68.105469 C 125.65625 68.105469 126.695312 73.867188 122.964844 78.667969 C 119.234375 83.464844 111.488281 85.957031 111.488281 85.957031 C 111.488281 85.957031 106.308594 87.652344 104.859375 88.804688 C 104.859375 88.804688 104.234375 89.808594 103.710938 91.628906 C 103.183594 93.453125 101.828125 95.347656 99.960938 94.859375 C 98.097656 94.371094 97.769531 92.460938 97.96875 91.359375 L 101.246094 84.917969 C 101.246094 84.917969 103.421875 82.824219 106.570312 81.167969 C 109.722656 79.503906 112.800781 78.421875 114.609375 76.65625 C 116.421875 74.886719 118.214844 71.1875 115.570312 67.542969 C 115.570312 67.542969 114.699219 66.027344 112.238281 66.136719 C 112.238281 66.136719 111.222656 66.96875 110.863281 68.988281 C 110.5 71.007812 110.316406 73.570312 108.035156 73.570312 C 105.753906 73.570312 105.664062 71.855469 105.664062 71.855469 " fill-opacity="1" fill-rule="evenodd"/><path fill="#a5582f" d="M 105.664062 71.855469 C 105.664062 71.855469 107.1875 65.9375 107.257812 61.066406 C 107.257812 61.066406 108.804688 59.332031 111.667969 58.621094 C 111.460938 59.183594 111.058594 60.507812 111.277344 61.871094 C 111.566406 63.675781 111.929688 64.039062 114.753906 63.675781 C 117.578125 63.316406 120.546875 66.492188 120.328125 70.460938 C 120.113281 74.429688 116.054688 78.902344 111.347656 80.996094 C 106.640625 83.089844 103.28125 85.695312 102.558594 87.246094 C 101.832031 88.796875 100.414062 93.949219 102.53125 90.738281 C 102.53125 90.738281 103.09375 89.765625 104.433594 89.132812 C 104.433594 89.132812 104.515625 89.148438 104.652344 89.183594 C 104.425781 89.628906 104.046875 90.460938 103.710938 91.628906 C 103.183594 93.453125 101.828125 95.347656 99.960938 94.859375 C 98.097656 94.371094 97.769531 92.460938 97.96875 91.359375 L 101.246094 84.917969 C 101.246094 84.917969 103.417969 82.824219 106.570312 81.167969 C 109.71875 79.503906 112.800781 78.421875 114.609375 76.65625 C 116.421875 74.886719 118.214844 71.1875 115.570312 67.542969 C 115.570312 67.542969 114.699219 66.027344 112.238281 66.136719 C 112.238281 66.136719 111.222656 66.96875 110.863281 68.988281 C 110.5 71.007812 110.320312 73.570312 108.035156 73.570312 C 105.753906 73.570312 105.664062 71.855469 105.664062 71.855469 " fill-opacity="1" fill-rule="evenodd"/><path fill="#fef1dc" d="M 29.066406 57.542969 C 29.066406 57.542969 29.96875 59.472656 33.355469 61.527344 C 36.742188 63.585938 43.894531 67.085938 54.46875 68.492188 C 54.46875 68.492188 66.039062 69.808594 76.324219 68.941406 C 76.324219 68.941406 90.878906 67.429688 98.921875 63.277344 C 98.921875 63.277344 105.582031 60.101562 106.742188 57.109375 C 106.742188 57.109375 105.855469 51.425781 90.753906 46.699219 C 90.753906 46.699219 79.238281 43.414062 63.703125 43.8125 C 63.703125 43.8125 54.050781 43.972656 43.007812 48.050781 C 31.960938 52.128906 28.628906 56.386719 29.066406 57.542969 " fill-opacity="1" fill-rule="evenodd"/><g clip-path="url(#17d5f39326)"><path fill="#a5582f" d="M 33.730469 115.878906 C 33.730469 115.878906 39.777344 120.714844 46.585938 122.808594 C 53.394531 124.898438 62.664062 126.34375 70.160156 126.054688 C 77.65625 125.765625 87.234375 124.664062 92.992188 121.707031 C 98.75 118.746094 101.792969 117.304688 103.746094 114.5625 C 103.746094 114.5625 86.21875 118.460938 76.660156 119.613281 C 67.101562 120.769531 50.371094 121.09375 33.730469 115.878906 " fill-opacity="1" fill-rule="evenodd"/></g><path fill="#d7b799" d="M 42.5625 62.007812 C 42.5625 62.007812 38.144531 60.058594 36.734375 58.21875 C 35.320312 56.378906 35.539062 54.539062 38.289062 52.480469 C 41.042969 50.421875 47.777344 48.621094 49.046875 48.222656 C 50.3125 47.824219 56.570312 46.445312 59.898438 46.15625 L 63.410156 45.765625 C 63.410156 45.765625 64.523438 45.628906 65.347656 45.601562 C 66.167969 45.574219 75.421875 45.738281 83.152344 47.308594 C 90.886719 48.875 92.632812 49.679688 94.246094 50.402344 C 95.855469 51.121094 99.207031 52.890625 99.421875 54.964844 C 99.640625 57.039062 97.984375 59.285156 93.382812 61.703125 C 93.382812 61.703125 95.304688 58.078125 89.945312 56.582031 C 84.585938 55.082031 78.128906 54.785156 73.347656 54.640625 C 73.347656 54.640625 65.320312 54.453125 60.503906 55.066406 C 60.503906 55.066406 52.316406 55.804688 46.054688 58.367188 C 46.054688 58.367188 44.640625 58.871094 43.519531 60.097656 C 42.394531 61.324219 42.5625 62.007812 42.5625 62.007812 " fill-opacity="1" fill-rule="evenodd"/><path fill="#fef1dc" d="M 33.167969 92.097656 C 35.089844 91.578125 36.925781 91.292969 38.816406 90.851562 C 41.113281 95.175781 44.328125 98.207031 47.097656 101.964844 C 45.058594 102.632812 40.992188 103.886719 41.503906 106.855469 C 42.257812 111.253906 54.34375 112.972656 57.714844 113.371094 C 64.363281 114.160156 71.625 114.230469 78.292969 113.628906 C 82.914062 113.214844 88.679688 112.523438 92.929688 110.84375 C 94.605469 110.183594 96.925781 108.847656 97.734375 107.171875 C 98.371094 105.847656 97.292969 104.644531 96.339844 103.847656 C 95.15625 102.863281 93.28125 102.285156 91.761719 102.167969 C 90.785156 102.09375 89.914062 102.097656 91.03125 100.84375 C 91.699219 100.09375 92.335938 99.363281 92.941406 98.628906 C 94.597656 96.609375 96.210938 93.507812 97.738281 91.867188 C 98.277344 92.910156 98.394531 94.347656 99.699219 94.828125 C 100.226562 95.019531 100.84375 95.003906 101.421875 94.75 C 103.710938 93.753906 103.59375 91.09375 104.304688 90.121094 L 104.558594 90.148438 C 106.609375 90.433594 122.246094 94.792969 122.226562 102.058594 C 122.214844 106.007812 117.023438 109.054688 114.046875 110.507812 C 108.144531 113.390625 100.304688 115.492188 93.957031 116.75 C 88.921875 117.816406 83.074219 118.902344 77.976562 119.503906 C 73.058594 120.085938 68.660156 120.351562 64.226562 120.304688 C 59.796875 120.253906 55.339844 119.890625 50.304688 119.214844 C 42.839844 118.210938 33.96875 116.144531 26.996094 113.398438 C 23.367188 111.96875 15.832031 108.539062 15.941406 103.808594 C 16.082031 97.460938 28.332031 93.398438 33.167969 92.097656 " fill-opacity="1" fill-rule="evenodd"/><path fill="#d7b799" d="M 95.804688 103.820312 C 96.957031 104.5 98.023438 105.789062 97.703125 107.207031 C 97.429688 108.425781 96.257812 109.332031 95.214844 109.902344 C 92.828125 111.214844 88.9375 112.117188 87.308594 112.28125 C 88.96875 111.449219 90.460938 110.460938 90.113281 109.152344 C 89.820312 108.046875 88.640625 107.285156 86.757812 106.777344 C 86.515625 106.71875 85.980469 106.578125 85.703125 106.5625 C 85.972656 105.957031 87.121094 105.070312 88.054688 104.175781 C 88.621094 103.636719 89.128906 103.082031 89.679688 102.511719 C 91.414062 102.351562 94.199219 102.871094 95.804688 103.820312 Z M 53.210938 106.980469 C 51.546875 107.210938 51.148438 107.242188 49.574219 108.058594 C 48.90625 108.402344 48.390625 108.894531 48.21875 109.425781 C 48.066406 109.898438 48.257812 110.367188 49.03125 111.628906 C 48.226562 111.453125 47.710938 111.355469 46.90625 111.027344 C 45.238281 110.351562 42.578125 109.183594 41.917969 107.375 C 40.796875 104.328125 44.996094 102.542969 47.222656 101.945312 C 49.03125 103.148438 51.25 105.472656 53.210938 106.980469 " fill-opacity="1" fill-rule="evenodd"/><path fill="#fef1dc" d="M 54.179688 107.738281 C 54.425781 107.925781 54.640625 108.089844 54.734375 108.152344 C 55.773438 108.847656 57.121094 109.410156 58.53125 109.875 C 62.363281 111.136719 66.425781 111.835938 70.464844 111.589844 C 72.125 111.488281 73.859375 111.371094 75.53125 111.097656 C 77.191406 110.824219 78.792969 110.402344 80.210938 109.695312 C 81.679688 108.960938 83.785156 107.835938 85 106.710938 C 85.265625 106.464844 85.417969 106.324219 85.679688 106.273438 C 85.972656 106.214844 86.1875 106.242188 86.832031 106.460938 C 87.023438 106.523438 87.320312 106.675781 87.589844 106.761719 C 88.585938 107.085938 89.445312 107.664062 89.90625 108.351562 C 90.726562 109.582031 90.175781 110.5625 89.027344 111.324219 C 87.246094 112.503906 85.722656 112.835938 83.699219 113.046875 C 81.820312 113.242188 80.039062 113.375 78.140625 113.507812 C 74.742188 113.742188 71.324219 113.886719 67.898438 113.863281 C 64.46875 113.839844 61.050781 113.652344 57.65625 113.234375 C 56.347656 113.074219 55.027344 112.882812 53.816406 112.675781 C 53.003906 112.535156 50.195312 112.101562 49.402344 111.535156 C 46.890625 109.734375 48.46875 108.25 50.515625 107.386719 C 51.335938 107.039062 52.351562 107.054688 52.84375 107.054688 C 53.082031 107.054688 53.625 107.316406 54.179688 107.738281 " fill-opacity="1" fill-rule="evenodd"/><path fill="#854129" d="M 43.113281 62.199219 C 43.113281 62.199219 49.304688 65.554688 61.507812 66.347656 C 61.507812 66.347656 70.089844 67.179688 74.183594 66.78125 C 78.273438 66.382812 84.972656 65.589844 88.957031 63.679688 C 92.941406 61.765625 94.570312 60.574219 93.59375 58.953125 C 92.613281 57.328125 87.90625 55.308594 75.667969 54.65625 C 75.667969 54.65625 70.089844 54.515625 65.816406 54.695312 C 61.542969 54.875 56.328125 55.417969 53.542969 56.210938 C 50.753906 57.003906 42.425781 59.601562 43.113281 62.199219 " fill-opacity="1" fill-rule="evenodd"/><path fill="#ddcdc1" d="M 72.335938 8.25 C 72.957031 7.359375 73.617188 6.492188 74.035156 5.417969 C 74.4375 4.394531 74.335938 2.585938 73.335938 1.871094 C 72.914062 1.570312 72.363281 1.417969 71.734375 1.371094 C 71.246094 1.335938 71.125 1.359375 70.636719 1.375 C 71.152344 0.6875 71.953125 0.589844 72.777344 0.640625 C 74.070312 0.726562 74.957031 1.335938 75.605469 2.445312 C 76.039062 3.191406 76.269531 4.164062 76.257812 5.023438 C 76.246094 5.8125 75.726562 6.695312 75.226562 7.511719 C 74.308594 9.003906 73.085938 10.253906 72.039062 11.652344 C 70.6875 13.449219 70.695312 13.675781 70.296875 15.691406 C 69.8125 14.226562 69.695312 13.589844 70.175781 12.042969 C 70.613281 10.617188 71.488281 9.460938 72.335938 8.25 " fill-opacity="1" fill-rule="evenodd"/><path fill="#ddcdc1" d="M 69.269531 8.433594 C 69.269531 8.433594 66.988281 11.972656 69.558594 19.980469 C 69.558594 19.980469 70.609375 23.011719 72.78125 26.691406 C 72.78125 26.691406 75.097656 31.382812 73.90625 34.992188 C 72.710938 38.597656 68.761719 39.394531 67.457031 39.539062 C 67.457031 39.539062 69.339844 36 69.957031 34.015625 C 70.574219 32.03125 70.429688 28.460938 67.351562 22.796875 C 64.273438 17.132812 65.71875 11.070312 69.269531 8.433594 " fill-opacity="1" fill-rule="evenodd"/><path fill="#eba26b" d="M 115.25 58.59375 C 114.519531 58.660156 113.90625 58.964844 113.691406 59.734375 C 113.042969 62.082031 116.121094 60.851562 119.089844 62.800781 C 122.058594 64.75 122.636719 67.78125 122.636719 69.511719 C 122.636719 71.246094 122.457031 74.167969 121.480469 76.511719 C 120.5 78.859375 118.726562 80.554688 117.929688 81.421875 C 117.132812 82.285156 111.773438 85.535156 109.710938 86.398438 C 109.710938 86.398438 115.722656 84.59375 117.964844 83.007812 C 120.210938 81.421875 123.976562 79.867188 125.644531 72.398438 C 125.644531 72.398438 126.730469 67.851562 124.195312 63.703125 C 122.566406 61.035156 118.671875 58.28125 115.25 58.59375 " fill-opacity="1" fill-rule="evenodd"/><path fill="#eba26b" d="M 100.042969 115.515625 C 100.042969 115.515625 90.121094 122.15625 84.398438 124.394531 C 84.398438 124.394531 91.058594 123.277344 95.476562 120.425781 C 99.894531 117.574219 101.671875 117.140625 103.664062 114.542969 L 101.597656 115.121094 L 100.042969 115.515625 " fill-opacity="1" fill-rule="evenodd"/><path fill="#d7b799" d="M 80.050781 110.03125 C 77.078125 114.25 51.726562 112.15625 48.21875 109.421875 L 42.210938 104.730469 C 42.210938 104.730469 20.671875 101.769531 17.003906 100.832031 C 17.003906 100.832031 19.757812 96.71875 28.011719 93.617188 C 28.011719 93.617188 30.257812 92.460938 38.878906 90.65625 C 38.878906 90.65625 43.167969 97.640625 47.585938 102.003906 C 52.003906 106.371094 54.828125 108.246094 54.828125 108.246094 C 54.828125 108.246094 60.261719 110.84375 64.425781 111.277344 C 68.589844 111.710938 75.488281 111.152344 80.050781 110.03125 " fill-opacity="1" fill-rule="evenodd"/><path fill="#ad896f" d="M 48.222656 109.421875 C 48.21875 109.421875 42.273438 104.78125 42.273438 104.78125 C 43.339844 103.285156 45.726562 102.34375 47.222656 101.945312 C 47.660156 102.238281 48.125 102.59375 48.601562 102.992188 C 50.511719 104.820312 52.066406 106.132812 53.144531 106.988281 C 51.535156 107.210938 51.128906 107.253906 49.574219 108.058594 C 48.910156 108.402344 48.394531 108.890625 48.222656 109.421875 " fill-opacity="1" fill-rule="evenodd"/><g clip-path="url(#349b2abff4)"><path fill="#0d0d0d" d="M 68.519531 68.648438 C 70.558594 68.601562 72.554688 68.421875 74.550781 68.375 C 75.777344 68.339844 79.007812 67.964844 80.265625 67.789062 C 87.109375 66.832031 93.648438 65.347656 99.8125 62.273438 C 101.867188 61.253906 103.773438 60.046875 105.402344 58.421875 C 106.457031 57.371094 106.421875 57.261719 106.074219 56.5625 C 105.324219 55.050781 104.484375 54.179688 103.203125 53.136719 C 101.570312 51.808594 99.097656 50.578125 97.234375 49.664062 C 94.0625 48.105469 89.273438 46.695312 85.863281 46.023438 C 83.171875 45.488281 80.515625 45.183594 77.699219 44.890625 C 71.582031 44.246094 66.464844 44.121094 60.285156 44.464844 C 56.234375 44.921875 53.574219 45.464844 49.8125 46.457031 C 45.4375 47.609375 42.402344 48.640625 38.347656 50.53125 C 36.289062 51.554688 32.265625 53.71875 30.710938 55.28125 C 29.921875 56.078125 29.53125 56.417969 29.53125 57.519531 C 29.53125 58.246094 31.835938 60.0625 32.425781 60.503906 C 33.488281 61.292969 34.90625 62.035156 36.109375 62.636719 L 38.140625 63.550781 C 42.027344 65.269531 47.582031 66.796875 51.792969 67.496094 C 57.972656 68.519531 62.15625 68.648438 68.519531 68.648438 Z M 29.050781 58.335938 C 29.339844 61.796875 29.570312 64.992188 30.324219 68.402344 C 30.660156 69.933594 31.007812 71.429688 31.492188 72.90625 C 32.460938 75.875 33.285156 78.332031 34.472656 81.199219 C 34.746094 81.855469 35.058594 82.539062 35.355469 83.191406 C 36.222656 85.113281 37.199219 86.96875 38.210938 88.8125 C 38.550781 89.4375 38.886719 89.976562 39.246094 90.578125 C 40.296875 92.308594 41.464844 94.019531 42.675781 95.625 C 43.09375 96.183594 43.492188 96.699219 43.9375 97.238281 L 45.574219 99.15625 C 46.296875 100.054688 47.132812 100.898438 47.945312 101.710938 C 48.652344 102.414062 49.367188 103.121094 50.136719 103.761719 L 50.859375 104.40625 C 51.496094 104.972656 52.128906 105.5625 52.816406 106.074219 C 53.214844 106.371094 53.839844 106.480469 54.308594 106.636719 C 56.488281 107.359375 58.820312 107.914062 61.128906 108.308594 C 64.097656 108.8125 67.140625 109.078125 70.234375 108.929688 C 70.601562 108.914062 71.097656 108.847656 71.46875 108.828125 C 75.515625 108.636719 80.910156 107.582031 84.59375 106.035156 L 84.796875 105.964844 C 85.621094 105.632812 88.957031 102.378906 89.519531 101.652344 L 92.152344 98.679688 C 92.984375 97.628906 93.773438 96.570312 94.578125 95.5 L 96.011719 93.441406 C 96.78125 92.335938 97.578125 90.90625 98.277344 89.691406 C 99.289062 87.933594 100.496094 85.550781 101.128906 83.863281 L 101.941406 81.871094 C 102.59375 80.199219 103.226562 78.535156 103.785156 76.816406 C 104.289062 75.152344 104.710938 73.511719 105.1875 71.863281 C 105.46875 70.894531 105.695312 69.878906 105.878906 68.871094 C 106.472656 65.664062 107.089844 61.257812 106.621094 58.078125 C 105.269531 60.003906 102.777344 61.929688 100.382812 63.117188 L 98.214844 64.164062 C 95.929688 65.3125 92.257812 66.425781 89.902344 67.007812 C 85.878906 68 81.976562 68.671875 77.859375 69.238281 C 75.816406 69.515625 71.679688 69.746094 69.734375 69.742188 C 65.4375 69.738281 62.484375 69.554688 58.171875 69.261719 C 52.015625 68.847656 43.890625 67.011719 38.214844 64.570312 C 35.445312 63.304688 32.730469 62.101562 30.539062 59.925781 C 30.066406 59.453125 29.675781 58.980469 29.050781 58.335938 Z M 103.125 84.488281 L 102.265625 85.265625 C 101.980469 85.484375 101.71875 85.785156 101.464844 86.039062 C 101.347656 86.15625 101.140625 86.335938 101.0625 86.457031 C 100.964844 86.605469 99.605469 89.445312 99.164062 90.167969 C 98.957031 90.511719 98.796875 90.824219 98.589844 91.164062 C 98.261719 91.707031 98.105469 91.820312 98.230469 92.273438 C 98.917969 94.804688 101.3125 95.878906 103.171875 92.179688 C 103.359375 91.804688 103.476562 91.460938 103.613281 91.050781 C 103.734375 90.691406 103.964844 90.160156 104.042969 89.828125 C 103.542969 90.109375 103.195312 90.496094 102.757812 90.929688 C 102.472656 91.25 102.199219 91.570312 101.910156 91.878906 C 101.757812 92.042969 101.761719 92.082031 101.617188 92.132812 C 101.886719 91.628906 102.007812 91.28125 102.332031 90.796875 L 102.882812 89.980469 C 103.519531 89.140625 103.695312 88.957031 104.679688 88.421875 C 105.847656 87.792969 107.070312 87.09375 108.34375 86.679688 L 114.160156 84.417969 C 115.050781 83.976562 115.917969 83.625 116.828125 83.175781 C 118.5 82.3125 120.277344 81.054688 121.542969 79.691406 L 122.167969 78.945312 C 122.925781 78.007812 122.921875 77.992188 123.550781 76.910156 C 124.640625 75.027344 124.671875 74.617188 125.148438 72.566406 C 125.796875 69.777344 125.355469 67.207031 124.117188 64.730469 C 123.941406 64.378906 123.839844 64.226562 123.644531 63.90625 C 122.292969 61.699219 120.003906 60.085938 117.472656 59.335938 C 115.195312 58.664062 112.75 58.550781 110.464844 59.464844 C 109.8125 59.726562 108.109375 60.882812 107.679688 61.359375 C 107.691406 62.953125 107.355469 65.535156 107.230469 66.933594 L 106.828125 69.191406 L 108.15625 67.582031 C 108.925781 66.609375 109.90625 65.367188 110.78125 64.464844 L 112.171875 62.980469 C 112.109375 63.210938 112.132812 63.097656 111.996094 63.285156 L 110.609375 65.246094 C 109.785156 66.472656 109.808594 66.375 109 67.464844 C 108.714844 67.847656 108.453125 68.160156 108.160156 68.539062 C 107.875 68.898438 106.574219 70.324219 106.484375 70.695312 L 106.140625 72.195312 C 106.492188 72.722656 107.183594 73.136719 108.128906 73.085938 C 108.601562 73.0625 108.882812 72.886719 109.15625 72.675781 C 109.457031 72.449219 109.601562 72.207031 109.773438 71.859375 C 110.476562 70.429688 109.832031 65.808594 114.160156 64.894531 C 115.191406 64.679688 115.824219 64.902344 116.535156 65.253906 C 116.878906 65.425781 117.957031 66.199219 118.132812 66.460938 C 117.859375 66.390625 117.355469 65.90625 116.625 65.847656 C 116.871094 66.058594 117.535156 66.492188 117.652344 66.667969 C 117.433594 66.609375 117.136719 66.335938 116.558594 66.324219 C 116.636719 66.4375 116.9375 66.671875 117.085938 66.820312 C 117.28125 67.015625 117.457031 67.089844 117.585938 67.28125 C 117.296875 67.207031 117.351562 67.054688 116.417969 66.804688 C 116.023438 66.695312 115.617188 66.472656 115.1875 66.460938 C 115.398438 66.75 115.699219 66.789062 116.324219 67.71875 C 116.648438 68.203125 116.859375 68.71875 117.046875 69.320312 C 117.40625 70.472656 117.46875 72.121094 117.144531 73.398438 C 115.96875 78.070312 110.371094 79.433594 106.648438 81.648438 C 104.820312 82.734375 104.738281 82.738281 103.078125 83.960938 C 102.378906 84.476562 101.582031 85.0625 101.414062 85.785156 C 101.675781 85.609375 101.96875 85.289062 102.234375 85.101562 C 102.410156 84.976562 102.488281 84.929688 102.667969 84.78125 C 102.8125 84.660156 102.949219 84.535156 103.125 84.488281 Z M 102.371094 83.53125 L 103.28125 82.796875 C 104.144531 82.160156 105.371094 81.421875 106.300781 80.960938 C 107.855469 80.1875 109.402344 79.296875 111.074219 78.476562 C 111.265625 78.382812 111.433594 78.332031 111.648438 78.230469 C 113.046875 77.566406 115.195312 75.726562 115.871094 74.382812 C 116.804688 72.535156 116.671875 69.917969 115.59375 68.171875 C 115.171875 67.488281 114.230469 66.667969 113.128906 66.667969 C 112.539062 66.667969 112.511719 66.609375 112.246094 66.945312 C 112.117188 67.109375 112.050781 67.183594 111.921875 67.375 C 110.730469 69.160156 111.441406 71.308594 110.058594 73.027344 C 109.707031 73.460938 108.828125 73.972656 108.058594 73.972656 C 106.472656 73.972656 106.214844 73.203125 105.933594 73.015625 C 105.167969 76.304688 103.765625 79.777344 102.605469 82.945312 C 102.511719 83.167969 102.417969 83.328125 102.371094 83.53125 Z M 97.746094 92.53125 C 96.949219 93.59375 96.0625 95.144531 95.265625 96.304688 C 94.007812 98.15625 92.648438 99.734375 91.164062 101.390625 C 90.898438 101.730469 91.003906 101.691406 91.472656 101.695312 C 92.625 101.707031 94.371094 102.195312 95.425781 102.695312 C 96.21875 103.066406 97.195312 103.910156 97.695312 104.578125 C 97.84375 104.78125 97.976562 104.96875 98.101562 105.195312 C 98.953125 106.773438 97.859375 108.109375 96.664062 109.117188 C 95.914062 109.746094 95.015625 110.273438 94.121094 110.675781 C 93.425781 110.992188 92.632812 111.304688 91.914062 111.550781 C 90.121094 112.15625 88.109375 112.769531 86.25 113.078125 C 83.542969 113.519531 81.09375 113.839844 78.332031 114.089844 C 71.898438 114.667969 64.035156 114.585938 57.660156 113.832031 C 54.164062 113.417969 51.476562 112.847656 48.09375 111.941406 C 46.332031 111.472656 44.191406 110.5625 42.746094 109.417969 C 40.890625 107.941406 40.398438 106.164062 41.863281 104.285156 C 42.710938 103.199219 43.933594 102.476562 45.230469 102.042969 C 45.839844 101.839844 46.128906 101.796875 46.347656 101.722656 C 46.273438 101.628906 46.175781 101.511719 46.066406 101.402344 L 43.851562 98.882812 L 39.878906 93.429688 C 39.414062 92.78125 38.949219 92.089844 38.574219 91.382812 C 38.136719 91.484375 37.804688 91.523438 37.300781 91.617188 C 34.652344 92.105469 31.902344 92.898438 29.332031 93.710938 C 27.476562 94.300781 25.066406 95.324219 23.335938 96.25 L 22.28125 96.867188 C 20.363281 97.988281 18.9375 99.097656 17.546875 100.871094 C 16.898438 101.699219 16.429688 102.632812 16.402344 103.816406 C 16.359375 105.664062 17.769531 107.515625 18.996094 108.457031 C 20.378906 109.515625 21.375 110.132812 22.929688 111 C 25.640625 112.511719 28.632812 113.558594 31.578125 114.539062 C 33.035156 115.023438 34.574219 115.40625 36.03125 115.835938 C 37.949219 116.394531 41.066406 117.054688 43.046875 117.449219 C 44.679688 117.773438 46.214844 118.101562 47.875 118.371094 C 48.660156 118.5 49.554688 118.648438 50.367188 118.757812 C 60.40625 120.109375 68.109375 120.207031 77.921875 119.046875 C 79.265625 118.886719 80.597656 118.597656 81.941406 118.410156 C 83.3125 118.21875 84.628906 117.921875 86 117.742188 C 88.019531 117.472656 89.945312 117.03125 91.945312 116.703125 L 93.871094 116.296875 C 96.433594 115.789062 98.933594 115.144531 101.46875 114.515625 L 105.070312 113.460938 C 106.28125 113.058594 107.386719 112.703125 108.597656 112.265625 C 111.917969 111.078125 115.925781 109.378906 118.632812 107.109375 C 119.4375 106.429688 120.359375 105.636719 120.902344 104.726562 C 122.023438 102.859375 122.097656 101.257812 120.847656 99.398438 C 119.421875 97.285156 117.066406 95.71875 114.863281 94.503906 C 112.285156 93.074219 108.746094 91.6875 105.757812 90.945312 C 105.417969 90.863281 104.632812 90.695312 104.359375 90.5625 C 103.90625 91.503906 103.855469 92.511719 103.21875 93.660156 C 102.335938 95.238281 100.742188 95.699219 99.542969 95.257812 C 98.460938 94.863281 97.746094 93.652344 97.746094 92.53125 Z M 86.234375 106.152344 C 86.640625 106.304688 87.21875 106.371094 87.738281 106.578125 C 88.191406 106.757812 88.613281 106.988281 88.980469 107.25 C 90.1875 108.121094 91.203125 109.566406 89.882812 110.894531 C 89.683594 111.097656 89.605469 111.167969 89.375 111.339844 C 89.179688 111.484375 88.597656 111.773438 88.546875 111.820312 C 88.996094 111.820312 89.820312 111.5 90.1875 111.402344 C 91.367188 111.082031 92.789062 110.679688 93.871094 110.089844 C 94.246094 109.882812 94.601562 109.714844 94.992188 109.5 C 96.976562 108.410156 98.324219 106.6875 96.292969 104.746094 C 95.859375 104.332031 95.175781 103.972656 94.570312 103.730469 C 93.972656 103.488281 93.078125 103.257812 92.359375 103.136719 C 91.808594 103.042969 90.179688 102.792969 89.804688 102.828125 C 88.957031 103.707031 87.800781 104.855469 86.863281 105.636719 C 86.734375 105.753906 86.472656 105.996094 86.234375 106.152344 Z M 87.3125 106.824219 C 87.085938 106.667969 86.691406 106.539062 86.414062 106.425781 C 86.09375 106.292969 86.019531 106.300781 85.859375 106.539062 C 86.105469 106.546875 86.308594 106.605469 86.539062 106.644531 C 86.648438 106.664062 87.128906 106.792969 87.3125 106.824219 Z M 48.460938 111.039062 C 48.164062 110.605469 47.667969 110.019531 47.90625 109.285156 C 48.371094 107.84375 50.785156 106.949219 52.417969 106.949219 L 50.984375 105.847656 C 49.65625 104.824219 48.394531 103.28125 47.140625 102.445312 C 45.320312 102.933594 44.453125 103.363281 43.550781 104.144531 C 42.644531 104.921875 41.90625 106.011719 42.351562 107.21875 C 42.753906 108.320312 43.933594 109.050781 44.902344 109.59375 C 45.589844 109.976562 47.890625 111.027344 48.460938 111.039062 Z M 55.351562 107.960938 C 55.6875 108.25 56.558594 108.601562 57.015625 108.785156 C 60.800781 110.3125 64.625 110.980469 68.933594 110.980469 C 70.007812 110.980469 71.253906 111.015625 72.261719 110.890625 C 73.515625 110.734375 75.03125 110.472656 76.257812 110.222656 C 77.335938 110.003906 81.039062 108.941406 82.652344 107.820312 C 81.617188 108.089844 80.074219 108.605469 79.023438 108.8125 C 77.988281 109.015625 77.054688 109.355469 75.949219 109.574219 C 74.445312 109.871094 72.453125 110.15625 70.851562 110.203125 C 69.46875 110.246094 67.566406 110.226562 66.171875 110.042969 C 63.453125 109.6875 61.4375 109.398438 58.726562 108.855469 Z M 52.691406 107.15625 C 51.8125 107.15625 49.535156 108.089844 48.832031 108.785156 C 48.046875 109.558594 48.277344 110.417969 49.417969 111.234375 C 49.703125 111.4375 50.390625 111.582031 50.8125 111.6875 C 52.566406 112.121094 55.140625 112.554688 57.699219 112.871094 C 64.472656 113.707031 71.320312 113.613281 78.117188 113.140625 L 82 112.871094 C 84.917969 112.484375 86.601562 112.621094 88.75 111.199219 C 91.019531 109.695312 89.601562 107.804688 87.476562 107.113281 C 85.148438 106.355469 86.101562 106.429688 84.371094 107.722656 C 83.894531 108.078125 81.070312 109.675781 80.375 110.023438 C 77.460938 111.480469 73.824219 111.757812 70.488281 111.960938 C 67.511719 112.140625 65.503906 111.867188 62.644531 111.371094 C 60.042969 110.761719 56.675781 109.890625 54.527344 108.457031 C 54.203125 108.238281 52.855469 107.15625 52.691406 107.15625 Z M 35.71875 116.859375 C 35.941406 117.164062 38.878906 118.847656 39.398438 119.105469 C 46.773438 122.75 50.910156 123.914062 58.886719 125.015625 C 59.308594 125.070312 59.636719 125.082031 60.0625 125.140625 C 60.804688 125.242188 61.726562 125.375 62.492188 125.386719 L 67.5625 125.660156 C 69.3125 125.648438 71.152344 125.773438 72.894531 125.578125 C 79.515625 124.839844 84.195312 124.523438 90.78125 122.097656 C 91.378906 121.878906 92.078125 121.605469 92.6875 121.332031 L 96.296875 119.605469 C 97.488281 119.003906 102.164062 115.996094 102.644531 115.28125 C 100.964844 115.734375 99.355469 116.132812 97.660156 116.527344 C 95.691406 116.945312 93.519531 117.285156 91.59375 117.753906 C 93.121094 117.734375 94.25 117.589844 95.765625 117.367188 C 96.394531 117.273438 97.457031 117.140625 98.058594 116.988281 C 98.289062 116.933594 98.464844 116.855469 98.742188 116.851562 C 96.558594 117.65625 95.050781 118.234375 92.699219 118.902344 C 93.0625 118.902344 96.886719 118.070312 97.414062 117.917969 L 98.671875 117.535156 C 98.449219 117.726562 98.25 117.742188 97.964844 117.855469 L 95.890625 118.722656 C 94.507812 119.300781 92.964844 119.875 91.519531 120.238281 C 88.757812 120.921875 86.023438 121.382812 83.214844 121.796875 C 75.832031 122.878906 64.871094 123.148438 57.582031 122.449219 C 55.449219 122.242188 52.972656 121.921875 51.828125 121.667969 C 51.28125 121.546875 50.800781 121.453125 50.25 121.328125 L 48.214844 120.816406 C 46.015625 120.257812 41.347656 119.082031 35.71875 116.859375 Z M 65.234375 126.542969 C 62.183594 126.453125 59.320312 126.15625 56.382812 125.667969 C 54.027344 125.277344 51.660156 124.808594 49.386719 124.171875 C 47.253906 123.574219 45.183594 122.792969 43.15625 121.980469 C 40.925781 121.089844 38.804688 119.957031 36.746094 118.742188 C 35.484375 117.996094 34.285156 117.167969 33.132812 116.265625 C 32.890625 116.074219 32.683594 115.929688 32.394531 115.839844 C 29.390625 114.902344 26.425781 113.910156 23.613281 112.503906 C 21.046875 111.21875 18.390625 109.769531 16.636719 107.4375 C 15.28125 105.636719 14.976562 103.792969 15.832031 101.703125 C 16.085938 101.082031 16.378906 100.773438 16.714844 100.257812 C 17.21875 99.496094 17.820312 99.035156 18.449219 98.433594 C 19.457031 97.460938 20.675781 96.695312 21.878906 95.980469 C 23.175781 95.203125 24.429688 94.628906 25.785156 94 C 27.078125 93.398438 28.742188 92.886719 30.105469 92.433594 C 31.9375 91.828125 33.789062 91.378906 35.667969 90.945312 C 38.53125 90.355469 38.277344 90.9375 37.34375 89.332031 L 35.699219 86.261719 C 34.078125 83.039062 32.714844 79.835938 31.542969 76.335938 C 30.21875 72.375 28.671875 66.96875 28.355469 62.445312 C 28.238281 60.800781 28.394531 59.21875 28.496094 57.578125 C 28.882812 55.710938 29.761719 54.722656 31.214844 53.710938 C 33.160156 52.351562 35.914062 50.925781 37.957031 49.800781 C 39.433594 49.066406 40.90625 48.46875 42.421875 47.835938 C 48.25 45.597656 53.152344 44.632812 59.359375 43.8125 C 67.875 42.691406 78.871094 43.476562 87.273438 45.386719 C 88.429688 45.648438 89.582031 45.960938 90.710938 46.265625 L 92.054688 46.699219 C 94.230469 47.3125 97.832031 48.792969 99.695312 49.875 C 101.003906 50.632812 102.378906 51.351562 103.558594 52.308594 C 104 52.6875 104.59375 53.136719 104.996094 53.539062 C 106.039062 54.578125 107.359375 56.726562 107.472656 58.1875 C 107.519531 58.792969 107.578125 59.183594 107.648438 59.839844 C 108.097656 59.539062 108.308594 59.3125 108.851562 58.988281 C 109.296875 58.726562 109.753906 58.539062 110.277344 58.363281 C 112.796875 57.5 116.011719 57.480469 118.515625 58.433594 C 120.457031 59.171875 122.71875 60.785156 124.199219 62.960938 C 125.75 65.242188 126.289062 67.648438 126.289062 70.421875 C 126.289062 73.941406 124.558594 77.914062 122.089844 80.375 C 120.191406 82.261719 117.839844 83.671875 115.265625 84.816406 C 112.714844 85.949219 110.0625 86.824219 107.496094 87.898438 C 106.601562 88.296875 105.046875 88.796875 104.769531 89.675781 C 105.433594 89.691406 107.816406 90.496094 108.511719 90.726562 C 110.9375 91.53125 113.566406 92.515625 115.753906 93.820312 C 117.816406 95.046875 119.441406 96.101562 121.0625 97.953125 C 122.566406 99.667969 123.28125 101.972656 122.390625 104.160156 C 121.746094 105.757812 120.589844 106.734375 119.382812 107.855469 C 117.6875 109.429688 115.082031 110.605469 112.96875 111.636719 C 109.941406 113.046875 107.890625 113.601562 104.980469 114.601562 C 104.621094 114.726562 104.828125 114.605469 104.609375 114.847656 C 102.933594 116.675781 100.1875 118.484375 98.035156 119.765625 C 96.738281 120.535156 95.480469 121.207031 94.0625 121.816406 C 90.523438 123.332031 86.886719 124.640625 83.027344 125.296875 C 76.519531 126.40625 71.761719 126.734375 65.234375 126.542969 " fill-opacity="1" fill-rule="evenodd"/></g><path fill="#0d0d0d" d="M 82.429688 47.207031 C 85.625 47.90625 89.007812 48.742188 91.851562 49.761719 C 94.535156 50.726562 100.5 53.296875 98.902344 56.519531 C 98.253906 57.824219 96.78125 58.976562 95.589844 59.769531 C 95.117188 60.082031 94.652344 60.386719 94.160156 60.660156 C 94.570312 59.578125 94.332031 58.71875 93.191406 57.855469 C 90.96875 56.175781 86.5625 55.390625 83.675781 55.046875 C 80.875 54.714844 77.917969 54.367188 75.097656 54.375 C 69.242188 54.394531 64.183594 54.296875 58.324219 54.933594 C 57.746094 54.996094 57.082031 55.117188 56.515625 55.183594 C 55.339844 55.320312 54.234375 55.640625 53.097656 55.871094 C 51.246094 56.25 42.140625 58.652344 42.140625 61.339844 L 41.089844 60.816406 C 40.699219 60.609375 40.425781 60.457031 40.078125 60.253906 C 37.265625 58.574219 34.300781 56.125 38.074219 53.332031 C 39.308594 52.417969 40.738281 51.605469 42.226562 50.949219 C 42.9375 50.640625 43.699219 50.382812 44.390625 50.136719 C 45.460938 49.75 46.511719 49.375 47.59375 49.066406 C 48.9375 48.683594 50.289062 48.273438 51.636719 47.917969 C 53.507812 47.429688 55.519531 46.996094 57.339844 46.710938 C 59.019531 46.449219 60.710938 46.277344 62.382812 46.007812 C 63.234375 45.871094 64.34375 45.726562 65.230469 45.636719 C 65.230469 45.472656 63.257812 45.699219 62.972656 45.707031 C 59.746094 45.804688 56.585938 46.3125 53.453125 46.941406 L 50.472656 47.589844 C 48.878906 47.953125 47.332031 48.367188 45.796875 48.871094 C 45.449219 48.984375 45.203125 49.082031 44.886719 49.195312 L 43.097656 49.800781 C 41.410156 50.46875 39.757812 51.15625 38.21875 52.109375 C 36.890625 52.933594 34.984375 54.625 35.3125 56.398438 C 35.527344 57.558594 35.957031 57.933594 36.558594 58.707031 C 37.15625 59.476562 38.414062 60.328125 39.238281 60.816406 C 40.527344 61.582031 41.855469 62.265625 43.246094 62.835938 C 43.847656 63.082031 44.414062 63.261719 45.035156 63.503906 C 48.300781 64.792969 53.15625 65.863281 56.660156 66.261719 L 65.222656 66.933594 C 67.367188 67.101562 69.378906 67.101562 71.507812 67.160156 C 72.246094 67.183594 73.089844 67.183594 73.820312 67.144531 C 75.792969 67.03125 77.285156 66.855469 79.238281 66.589844 C 82.097656 66.203125 84.417969 65.710938 87.058594 64.777344 L 88.085938 64.414062 C 89.976562 63.742188 91.277344 63.246094 93.074219 62.304688 C 94.394531 61.613281 95.660156 60.894531 96.679688 60.128906 C 97.996094 59.148438 99.496094 57.789062 99.847656 56.117188 C 100.257812 54.164062 98.78125 52.539062 97.261719 51.617188 C 93.644531 49.417969 88.757812 48.105469 84.605469 47.5 C 84.207031 47.441406 83.894531 47.410156 83.535156 47.335938 C 83.304688 47.289062 82.695312 47.207031 82.429688 47.207031 Z M 61.183594 55.214844 C 62.175781 55.363281 63.140625 55.445312 64.121094 55.6875 C 64.941406 55.890625 65.65625 56.101562 66.417969 56.40625 C 68.730469 57.324219 71.425781 59.433594 67.972656 61.136719 C 66.359375 61.933594 65.09375 62.273438 63.152344 63.230469 C 60.023438 64.773438 61.957031 66.019531 62.367188 66.105469 C 63.023438 66.238281 67.359375 66.394531 68.042969 66.394531 C 69.003906 66.417969 69.960938 66.464844 70.875 66.457031 C 72.472656 66.441406 74.539062 66.335938 76.074219 66.113281 C 75.867188 65.867188 75.632812 65.984375 75.230469 65.984375 C 74 65.992188 72.679688 65.988281 71.824219 65.148438 C 71.21875 64.550781 71.261719 64.425781 71.261719 63.730469 C 71.261719 61.433594 77.15625 60.050781 77.15625 57.722656 C 77.15625 56.226562 73.476562 54.976562 72.835938 54.921875 L 69.121094 54.84375 C 66.382812 54.847656 63.886719 54.914062 61.183594 55.214844 Z M 79.417969 56.699219 C 79.90625 56.699219 80.761719 57.035156 80.761719 57.664062 C 80.761719 58.367188 80.269531 58.640625 79.554688 58.472656 C 79.5625 58.078125 79.671875 57.933594 79.402344 57.601562 C 79.234375 57.398438 79 57.179688 78.730469 57.109375 C 78.796875 56.824219 78.9375 56.699219 79.417969 56.699219 Z M 82.226562 57.109375 C 82.300781 56.695312 83.621094 56.410156 83.8125 57.121094 C 83.894531 57.433594 83.453125 57.710938 82.796875 57.613281 C 82.238281 57.527344 82.222656 57.128906 82.226562 57.109375 Z M 52.554688 61.136719 C 51.726562 61.136719 51.984375 60.386719 52.964844 60.386719 C 53.261719 60.386719 53.378906 60.5 53.515625 60.65625 C 53.453125 60.925781 53.472656 60.9375 53.203125 61.03125 C 53.015625 61.09375 52.777344 61.136719 52.554688 61.136719 Z M 46.933594 61.546875 C 46.933594 60.761719 49.472656 60.609375 49.472656 61.273438 C 49.472656 62.183594 46.933594 62.355469 46.933594 61.546875 Z M 76.742188 64.550781 C 76.742188 64.164062 78.25 63.792969 78.25 64.617188 C 78.25 65.105469 76.742188 65.117188 76.742188 64.550781 " fill-opacity="1" fill-rule="evenodd"/><path fill="#0d0d0d" d="M 99.425781 69.535156 C 99.617188 69.484375 100.804688 68.503906 100.984375 68.355469 C 101.816406 67.683594 103 66.445312 103.621094 65.519531 L 104.703125 63.867188 L 103.417969 65.320312 C 102.953125 65.800781 102.554688 66.246094 102.082031 66.71875 L 100.089844 68.832031 C 99.867188 69.097656 99.609375 69.257812 99.425781 69.535156 " fill-opacity="1" fill-rule="evenodd"/><path fill="#0d0d0d" d="M 50.085938 102.511719 C 50.300781 102.828125 52.703125 104.335938 52.96875 104.488281 C 53.664062 104.890625 55.578125 105.789062 56.597656 105.789062 C 56.402344 105.617188 55.351562 105.234375 54.953125 105.039062 L 50.085938 102.511719 " fill-opacity="1" fill-rule="evenodd"/><path fill="#0d0d0d" d="M 48.238281 100.601562 C 48.382812 100.816406 48.664062 100.996094 48.894531 101.175781 C 49.859375 101.929688 49.71875 101.996094 51.128906 102.839844 C 52 103.363281 53.746094 104.191406 54.746094 104.421875 C 54.625 104.253906 53.324219 103.691406 53.089844 103.550781 L 51.453125 102.585938 C 50.902344 102.257812 50.421875 101.925781 49.851562 101.585938 C 49.585938 101.421875 48.449219 100.65625 48.238281 100.601562 " fill-opacity="1" fill-rule="evenodd"/><path fill="#0d0d0d" d="M 88.597656 101.28125 C 88.371094 101.34375 88.199219 101.554688 87.847656 101.765625 C 86.058594 102.835938 85.75 103.074219 83.757812 104.039062 C 82.871094 104.464844 82.21875 104.511719 81.945312 104.625 C 81.847656 104.664062 81.867188 104.660156 81.816406 104.695312 C 83.019531 104.695312 84.664062 103.988281 85.675781 103.492188 C 86.367188 103.148438 88.304688 101.722656 88.597656 101.28125 " fill-opacity="1" fill-rule="evenodd"/><path fill="#0d0d0d" d="M 37.203125 71.308594 C 37.035156 71.058594 36.792969 70.933594 36.570312 70.710938 C 36.347656 70.492188 36.179688 70.316406 35.957031 70.097656 C 35.804688 69.949219 35.769531 69.9375 35.617188 69.816406 L 32.390625 66.886719 C 32.230469 66.71875 32.214844 66.675781 32.066406 66.597656 C 32.554688 67.519531 34.273438 69.164062 35.050781 69.769531 L 36.789062 71.046875 C 36.980469 71.203125 36.972656 71.246094 37.203125 71.308594 " fill-opacity="1" fill-rule="evenodd"/><path fill="#0d0d0d" d="M 99.90625 70.898438 C 100.179688 70.828125 100.265625 70.617188 100.480469 70.449219 C 100.710938 70.269531 100.867188 70.144531 101.09375 69.964844 C 101.867188 69.34375 103.847656 67.417969 104.085938 66.394531 C 103.878906 66.53125 103.738281 66.703125 103.554688 66.886719 L 100.4375 70.335938 C 100.242188 70.53125 100.050781 70.679688 99.90625 70.898438 " fill-opacity="1" fill-rule="evenodd"/><path fill="#0d0d0d" d="M 84.074219 102.375 C 84.773438 102.316406 86.390625 101.570312 86.925781 101.253906 C 87.363281 100.996094 88.984375 99.921875 89.214844 99.578125 L 84.234375 102.261719 C 84.105469 102.347656 84.179688 102.285156 84.074219 102.375 " fill-opacity="1" fill-rule="evenodd"/><path fill="#0d0d0d" d="M 36.519531 72.46875 C 36.351562 72.21875 33.335938 69.402344 32.90625 68.96875 C 32.671875 68.734375 32.605469 68.6875 32.339844 68.507812 C 32.425781 68.824219 33.007812 69.34375 33.21875 69.613281 C 33.539062 70.011719 36.199219 72.386719 36.519531 72.46875 " fill-opacity="1" fill-rule="evenodd"/><path fill="#0d0d0d" d="M 118.269531 80.1875 C 117.921875 80.417969 117.894531 80.691406 117.351562 81.113281 C 116.707031 81.609375 116.242188 82.109375 115.292969 82.820312 C 114.949219 83.078125 114.4375 83.355469 114.226562 83.667969 C 114.566406 83.589844 115.140625 83.21875 115.433594 83.027344 C 115.972656 82.667969 117.070312 81.769531 117.449219 81.277344 C 117.667969 80.992188 118.207031 80.414062 118.269531 80.1875 " fill-opacity="1" fill-rule="evenodd"/><path fill="#0d0d0d" d="M 92.847656 94.386719 C 92.398438 94.492188 90.777344 95.375 90.289062 95.664062 C 90.007812 95.828125 89.722656 95.984375 89.558594 96.230469 C 90.09375 96.1875 91.605469 95.4375 92.140625 94.980469 C 92.292969 94.851562 92.300781 94.828125 92.472656 94.699219 C 92.628906 94.582031 92.75 94.515625 92.847656 94.386719 " fill-opacity="1" fill-rule="evenodd"/><path fill="#0d0d0d" d="M 117.242188 81.824219 C 118.050781 81.609375 120.320312 79.09375 120.394531 78.203125 C 119.71875 78.980469 118.800781 80.554688 117.714844 81.40625 C 117.550781 81.535156 117.347656 81.667969 117.242188 81.824219 " fill-opacity="1" fill-rule="evenodd"/><path fill="#0d0d0d" d="M 121.902344 76.566406 L 121.671875 76.953125 C 121.347656 77.613281 120.582031 78.980469 120.101562 79.488281 C 119.960938 79.636719 119.890625 79.675781 119.777344 79.84375 C 120.082031 79.761719 120.265625 79.460938 120.480469 79.246094 C 121.078125 78.65625 121.863281 77.039062 121.902344 76.566406 " fill-opacity="1" fill-rule="evenodd"/><path fill="#0d0d0d" d="M 103.605469 84.351562 C 103.800781 84.21875 103.9375 84.148438 104.101562 83.957031 C 104.242188 83.804688 104.445312 83.582031 104.496094 83.394531 C 104.316406 83.515625 104.195312 83.660156 104.035156 83.820312 C 103.859375 83.992188 103.671875 84.097656 103.605469 84.351562 " fill-opacity="1" fill-rule="evenodd"/><path fill="#0d0d0d" d="M 104.769531 83.53125 C 104.960938 83.402344 105.328125 82.996094 105.386719 82.78125 C 105.164062 82.929688 104.839844 83.269531 104.769531 83.53125 " fill-opacity="1" fill-rule="evenodd"/><path fill="#0d0d0d" d="M 68.074219 38.199219 C 68.691406 37.625 69.664062 35.855469 69.925781 35.195312 C 70.996094 32.503906 70.773438 29.882812 69.660156 27.128906 C 68.972656 25.429688 68.195312 23.769531 67.457031 22.089844 C 65.476562 17.601562 65.324219 13.476562 68.347656 9.453125 C 68.472656 9.289062 68.597656 9.121094 68.71875 8.953125 C 68.660156 9.136719 68.59375 9.339844 68.5625 9.464844 C 68.394531 10.207031 67.941406 11.289062 67.9375 13.824219 C 67.933594 18.40625 70.054688 22.214844 72.003906 26.09375 C 73.910156 29.886719 75.183594 34.894531 71.128906 37.832031 C 70.546875 38.253906 69.296875 38.796875 68.367188 39.175781 C 68.066406 39.296875 67.683594 39.40625 67.457031 39.632812 C 70.796875 39.632812 73.265625 37.917969 74.300781 34.710938 C 74.835938 33.0625 74.574219 31.027344 74.1875 29.515625 C 73.410156 26.472656 70.949219 23.132812 69.660156 19.277344 C 69.402344 18.515625 69.199219 17.824219 69.027344 16.972656 C 68.429688 14 68.503906 9.773438 70.335938 7.132812 C 70.085938 7.296875 69.796875 7.484375 69.5625 7.660156 C 69.011719 8.070312 68.007812 9.085938 67.585938 9.648438 C 64.574219 13.667969 64.875 17.742188 66.585938 22 C 68.738281 27.355469 71.230469 30.222656 68.796875 36.257812 C 68.589844 36.808594 68.203125 37.652344 68.074219 38.199219 " fill-opacity="1" fill-rule="evenodd"/><path fill="#0d0d0d" d="M 70.589844 16.8125 C 70.492188 15.644531 70.707031 14.867188 71.175781 13.777344 C 71.582031 12.832031 72.011719 12.136719 72.554688 11.328125 C 73.222656 10.328125 73.417969 10.089844 74.164062 9.171875 C 74.917969 8.246094 75.109375 7.910156 75.71875 6.898438 C 77.480469 3.988281 75.832031 0.0117188 72.261719 0.382812 C 71.507812 0.460938 70.804688 0.796875 70.363281 1.359375 C 70.203125 1.566406 70.019531 1.640625 69.992188 1.945312 C 70.441406 1.707031 70.410156 1.519531 71.089844 1.46875 C 73.976562 1.265625 74.757812 3.738281 73.695312 5.90625 C 73.078125 7.164062 71.890625 8.558594 71.101562 9.742188 C 70.578125 10.527344 70.332031 10.910156 69.964844 11.816406 C 69.578125 12.757812 69.445312 14.140625 69.777344 15.203125 C 69.941406 15.730469 70.210938 16.410156 70.589844 16.8125 Z M 71.039062 1.207031 C 71.269531 1.035156 71.546875 0.992188 71.710938 0.949219 C 72.320312 0.792969 73.234375 0.855469 73.804688 1.085938 C 74.515625 1.371094 75.050781 1.953125 75.402344 2.5625 C 75.746094 3.152344 76.039062 4.070312 76.027344 5.019531 C 76.003906 6.503906 74.542969 8.332031 73.632812 9.464844 C 73.199219 10.011719 72.414062 10.765625 71.851562 11.511719 C 71.296875 12.25 70.742188 13.007812 70.382812 13.871094 C 70.300781 14.074219 70.207031 14.351562 70.164062 14.566406 C 70.007812 13.738281 70.207031 12.71875 70.394531 12.109375 C 70.601562 11.4375 70.867188 10.878906 71.179688 10.296875 C 72.097656 8.59375 73.394531 7.304688 74.125 5.449219 C 74.355469 4.863281 74.59375 4.074219 74.410156 3.210938 C 74.109375 1.796875 73.089844 1.238281 71.75 1.140625 C 71.601562 1.132812 71.296875 1.132812 71.039062 1.207031 " fill-opacity="1" fill-rule="evenodd"/></svg>